# xmcd CD database file
#
# Track frame offsets:
#	150
#	14142
#	30687
#	43606
#	62403
#	74745
#	92147
#	106103
#	122930
#	136599
#	149955
#	161646
#	180866
#	194858
#	207777
#	226574
#	238916
#	252872
#	269699
#	283055
#	294746
#	313966
#
# Disc length: 4366 seconds
#
# Revision: 0
# Processed by: cddbd v1.4PL0 Copyright (c) Steve Scherf et al.
# Submitted via: CDex 1.50
#
DISCID=5c110c16
DTITLE=Mark Chesnutt - Greatest Hits ~Zetroc Tunes Edition
DYEAR=2003
DGENRE=Country
TTITLE0=Bubba Shot The Jukebox
TTITLE1=Too Cold At Home
TTITLE2=Blame It On Texas
TTITLE3=Almost Goodbye
TTITLE4=It's A Little To Late
TTITLE5=Ol' Country
TTITLE6=Brother Jukebox
TTITLE7=Gonna Get A Life
TTITLE8=Let It Rain
TTITLE9=It Sure Is Monday
TTITLE10=Goin' Through The Big D
TTITLE11=I'll Think Of Something
TTITLE12=Bubba Shot The Jukebox
TTITLE13=Blame It On Texas
TTITLE14=Almost Goodbye
TTITLE15=It's A Little To Late
TTITLE16=Brother Jukebox
TTITLE17=Gonna Get A Life
TTITLE18=It Sure Is Monday
TTITLE19=Goin' Through The Big D
TTITLE20=I'll Think Of Something
TTITLE21=Let It Rain
EXTD=YEAR: 2003
EXTT0=
EXTT1=
EXTT2=
EXTT3=
EXTT4=
EXTT5=
EXTT6=
EXTT7=
EXTT8=
EXTT9=
EXTT10=
EXTT11=
EXTT12=
EXTT13=
EXTT14=
EXTT15=
EXTT16=
EXTT17=
EXTT18=
EXTT19=
EXTT20=
EXTT21=
PLAYORDER=
